<?xml version="1.0" encoding="UTF-8"?>
<!-- Generator: Adobe Illustrator 25.2.1, SVG Export Plug-In . SVG Version: 6.00 Build 0)  -->
<svg version="1.1" id="Capa_1" xmlns="http://www.w3.org/2000/svg" xmlns:xlink="http://www.w3.org/1999/xlink" x="0px" y="0px" viewBox="0 0 76.6 90" style="enable-background:new 0 0 76.6 90;" xml:space="preserve">
<style type="text/css">
	.st0{fill:#13254B;}
	.st1{display:none;}
	.st2{display:inline;}
</style>
<g>
	<g>
		<path class="st0" d="M38,48.5c0.1,0,0.2,0,0.3,0c0,0,0.1,0,0.1,0c0.1,0,0.1,0,0.2,0c5.5-0.1,9.9-2,13.1-5.7c7.2-8.1,6-22,5.9-23.3    c-0.5-9.9-5.2-14.7-9-16.9C45.6,1,42.2,0.1,38.5,0h-0.1c0,0-0.1,0-0.1,0h-0.1c-2.1,0-6.1,0.3-10,2.6c-3.9,2.2-8.7,7-9.1,17    c-0.1,1.3-1.3,15.2,5.9,23.3C28.1,46.5,32.5,48.4,38,48.5z M24,20c0-0.1,0-0.1,0-0.1C24.6,6.5,34.1,5.1,38.1,5.1h0.1    c0,0,0.1,0,0.1,0c5,0.1,13.6,2.2,14.2,14.8c0,0.1,0,0.1,0,0.1c0,0.1,1.3,12.8-4.6,19.5c-2.3,2.6-5.5,4-9.6,4c0,0-0.1,0-0.1,0l0,0    c0,0-0.1,0-0.1,0c-4.1,0-7.2-1.3-9.6-4C22.7,32.8,23.9,20.1,24,20z"/>
		<path class="st0" d="M76.6,71.5C76.6,71.5,76.6,71.5,76.6,71.5c0-0.2,0-0.4,0-0.5c-0.1-3.7-0.4-12.3-8.4-15.1    c-0.1,0-0.1,0-0.2-0.1c-8.4-2.1-15.4-7-15.5-7c-1.1-0.8-2.7-0.5-3.5,0.6c-0.8,1.1-0.5,2.7,0.6,3.5c0.3,0.2,7.7,5.4,17,7.8    c4.3,1.5,4.8,6.2,5,10.4c0,0.2,0,0.3,0,0.5c0,1.7-0.1,4.3-0.4,5.8c-3,1.7-14.9,7.6-32.9,7.6C20.4,85,8.4,79,5.4,77.3    C5.1,75.8,5,73.2,5,71.6c0-0.1,0-0.3,0-0.5c0.1-4.2,0.6-8.9,5-10.4c9.3-2.4,16.7-7.6,17-7.8c1.1-0.8,1.4-2.4,0.6-3.5    c-0.8-1.1-2.4-1.4-3.5-0.6c-0.1,0.1-7,4.9-15.5,7c-0.1,0-0.1,0-0.2,0.1C0.4,58.7,0.1,67.3,0,71c0,0.2,0,0.3,0,0.5c0,0,0,0,0,0.1    c0,1,0,5.9,1,8.4c0.2,0.5,0.5,0.9,1,1.2c0.6,0.4,14,8.9,36.4,8.9s35.8-8.6,36.4-8.9c0.4-0.3,0.8-0.7,1-1.2    C76.6,77.4,76.6,72.5,76.6,71.5z"/>
	</g>
</g>
<g class="st1">
	<path class="st2" d="M72.7,86.3c-4.2-8.7-11.7-15.5-20.9-19v-5.5c4.5-0.2,13-1.4,17.9-6.5c0.6-0.6,0.9-1.6,0.6-2.5   c-0.2-0.9-0.9-1.6-1.8-1.8c-0.1,0-6.6-2.3-5.3-15.7c0.6-5.7,0.5-10.9-0.3-15.3c-0.9-5.1-2.6-9-5.1-11.8c-2.7-3-6.2-4.5-10.5-4.5   c-0.2,0-0.3,0-0.5,0C45.4,2.4,41.9,0,36.5,0c-2.5,0-5.2,0.5-7.9,1.6l-0.1,0c-2.1,0.8-6.1,2.3-9.4,6.8c-3.9,5.2-5.8,12.9-5.5,22.8   c0.2,10-1.4,14.8-2.8,17.2c-1.2,1.9-2.3,2.3-2.6,2.4c-1-0.1-1.8,0.4-2.2,1.3c-0.5,0.9-0.3,1.9,0.2,2.8c0.2,0.3,1.6,2.1,4.8,3.9   c3.7,2,8.3,3.1,13.7,3.3v5.2c-9,3.4-16.5,10.3-20.8,19.1c-0.4,0.8-0.3,1.7,0.1,2.5C4.4,89.5,5.2,90,6.1,90h64.3   c0.9,0,1.7-0.5,2.2-1.2C73.1,88,73.1,87.1,72.7,86.3z M10.5,84.8c4.1-6.3,10.3-11.1,17.4-13.4c1.1-0.3,1.8-1.3,1.8-2.4v-9.6   c0-0.7-0.3-1.4-0.8-1.8s-1.1-0.8-1.8-0.7c-7.4,0.1-11.9-1.6-14.3-3.1c0.2-0.2,0.4-0.3,0.6-0.5c3.8-3.9,5.5-11.4,5.3-22.2   c-0.5-20,8-23.2,11.6-24.6l0.1,0c2.1-0.8,4.2-1.2,6.1-1.2c4.9,0,7.4,2.7,7.6,3c0.5,0.7,1.4,1,2.2,0.9C46.7,9,47.1,9,47.5,9   c2.8,0,5,0.9,6.7,2.8c3.6,4,5.1,12.4,4,23.1c-1.1,10.8,2.3,16.2,5.2,18.8c-3.9,2.2-9.5,3-13.7,3c-0.2,0-0.4,0-0.4,0   c-0.7,0-1.4,0.2-1.9,0.7c-0.5,0.5-0.8,1.1-0.8,1.8v9.8c0,1.1,0.7,2.1,1.8,2.4c7.2,2.3,13.4,7.1,17.5,13.3L10.5,84.8L10.5,84.8z"/>
</g>
</svg>